#!OML:ASF Y:\EmotionMaleHayes\Project 1\Capture day 1\Session 1\Male1.ASF
:FULLY-SPECIFIED
:DEGREES
65
root 9.05088 15.4723 -1.03275 340.358 85.7264 345.62
lowerback 14.0957 3.93654 -5.21826
upperback 3.52401 4.55279 -1.65384
thorax -4.41053 2.36211 0.378155
lowerneck -23.7759 -1.49043 -1.94583
upperneck 27.689 -2.26104 3.65956
head 13.3744 -0.554212 1.38566
rclavicle -1.45113e-014 1.35174e-014
rhumerus -41.3148 16.5089 -100.039
rradius 74.7362
rwrist -13.7821
rhand -27.7078 -29.0529
rfingers 7.12502
rthumb -1.10371 -59.0298
lclavicle -1.45113e-014 1.35174e-014
lhumerus -61.353 -21.7647 82.4733
lradius 66.7792
lwrist 8.97005
lhand -33.7295 -25.5116
lfingers 7.12502
lthumb -6.9185 4.35534
rfemur 17.0708 2.33077 9.25979
rtibia 83.0006
rfoot 149.204 50.6888
rtoes 7.88723
lfemur -34.0635 10.202 -17.0228
ltibia 44.6835
lfoot -4.73078 6.05354
ltoes 6.73629
66
root 9.4971 15.4995 -1.06783 338.918 87.4525 344.328
lowerback 13.9727 3.25679 -4.94164
upperback 3.98183 3.73744 -1.99122
thorax -3.77981 1.95755 0.0486603
lowerneck -23.7349 -1.39883 -1.84364
upperneck 27.5139 -2.17143 3.66368
head 13.2886 -0.507725 1.38302
rclavicle 1.05356e-014 2.22639e-014
rhumerus -42.3599 13.764 -99.142
rradius 71.5544
rwrist -13.8514
rhand -28.8399 -31.2735
rfingers 7.12502
rthumb -2.19712 -61.2419
lclavicle 1.05356e-014 2.22639e-014
lhumerus -55.949 -22.7911 81.8219
lradius 64.4724
lwrist 7.95923
lhand -32.2518 -23.4511
lfingers 7.12502
lthumb -5.49182 6.45769
rfemur 13.6855 0.0576997 8.84464
rtibia 79.0214
rfoot 159.491 24.278
rtoes 9.4748
lfemur -32.7085 9.66728 -18.0794
ltibia 44.8169
lfoot -5.39759 4.69166
ltoes 6.76501
67
root 9.91109 15.5678 -1.11299 327.103 87.0132 333.217
lowerback 14.7363 3.07418 -3.62154
upperback 4.24811 3.66287 -2.04129
thorax -3.8287 1.92204 -0.759995
lowerneck -23.5342 -1.2824 -1.68625
upperneck 27.6418 -2.04616 3.62216
head 13.2938 -0.439116 1.36524
rclavicle -3.00165e-014 2.3059e-014
rhumerus -43.8243 11.5281 -98.3046
rradius 68.4064
rwrist -14.9695
rhand -29.9123 -32.3734
rfingers 7.12502
rthumb -3.23274 -62.3287
lclavicle -3.00165e-014 2.3059e-014
lhumerus -51.2523 -23.4411 81.1109
lradius 62.8471
lwrist 7.01624
lhand -31.0268 -21.9559
lfingers 7.12502
lthumb -4.30899 7.98026
rfemur 10.2235 -0.0605373 10.3911
rtibia 76.0378
rfoot 160.987 19.151
rtoes 9.26472
lfemur -30.1377 9.90121 -17.1156
ltibia 44.434
lfoot -6.41228 4.41127
ltoes 6.22694
68
root 10.3174 15.6295 -1.15397 317.544 87.3681 324.51
lowerback 15.6182 2.65363 -2.98915
upperback 4.55442 3.19132 -2.10598
thorax -3.93498 1.69735 -1.13227
lowerneck -23.3368 -1.11522 -1.5446
upperneck 27.836 -1.85044 3.61411
head 13.3256 -0.335056 1.3772
rclavicle 4.47266e-014 -5.56597e-015
rhumerus -45.5776 10.0801 -97.383
rradius 66.0445
rwrist -17.1681
rhand -30.8318 -34.0818
rfingers 7.12502
rthumb -4.12071 -64.0217
lclavicle 4.47266e-014 -5.56597e-015
lhumerus -46.931 -23.5523 80.5357
lradius 61.8687
lwrist 6.27981
lhand -30.8393 -21.7134
lfingers 7.12502
lthumb -4.12795 8.22634
rfemur 7.12027 -0.949537 11.2396
rtibia 73.9141
rfoot 161.725 16.2327
rtoes 7.9501
lfemur -27.7336 8.60928 -16.9601
ltibia 44.6686
lfoot -7.95643 4.41172
ltoes 7.13822
69
root 10.7011 15.6814 -1.18936 318.048 87.6194 325.762
lowerback 16.5253 2.37693 -3.14859
upperback 4.75427 2.78606 -2.07648
thorax -4.21366 1.50648 -0.972235
lowerneck -22.7324 -0.851845 -1.5527
upperneck 27.8071 -1.47862 3.68764
head 13.1769 -0.164153 1.47261
rclavicle 4.77083e-015 1.11319e-014
rhumerus -47.5253 9.58065 -96.3051
rradius 64.0532
rwrist -19.7285
rhand -32.214 -34.5494
rfingers 7.12502
rthumb -5.45536 -64.4591
lclavicle 4.77083e-015 1.11319e-014
lhumerus -43.1123 -23.3193 80.4335
lradius 61.7256
lwrist 6.75499
lhand -30.7841 -20.5893
lfingers 7.12502
lthumb -4.07464 9.35145
rfemur 3.42861 -1.39258 11.7896
rtibia 72.3294
rfoot 162.141 12.3033
rtoes 11.5634
lfemur -25.7593 7.41114 -17.2648
ltibia 45.4953
lfoot -9.69975 4.63127
ltoes 8.36714
